<?xml version="1.0" standalone="no"?>
<!DOCTYPE svg PUBLIC "-//W3C//DTD SVG 20010904//EN"
 "http://www.w3.org/TR/2001/REC-SVG-20010904/DTD/svg10.dtd">
<svg version="1.0" xmlns="http://www.w3.org/2000/svg"
 width="225.000000pt" height="225.000000pt" viewBox="0 0 225.000000 225.000000"
 preserveAspectRatio="xMidYMid meet">
<metadata>
Created by potrace 1.14, written by Peter Selinger 2001-2017
</metadata>
<g transform="translate(0.000000,225.000000) scale(0.100000,-0.100000)"
fill="#000000" stroke="none">
<path d="M1820 2218 c-59 -29 -208 -178 -301 -303 -168 -223 -394 -577 -724
-1128 -81 -136 -151 -245 -154 -241 -3 3 -49 125 -101 272 l-96 266 -38 10
c-25 5 -67 5 -119 -3 -139 -19 -153 -54 -91 -226 136 -380 214 -636 214 -701
0 -24 11 -42 49 -79 63 -62 86 -74 138 -75 80 0 137 73 338 435 423 759 755
1222 1033 1443 93 73 132 129 132 187 0 52 -36 123 -74 146 -45 27 -147 26
-206 -3z"/>
</g>
</svg>
